<?xml version="1.0" encoding="UTF-8" standalone="no"?>
<!DOCTYPE svg PUBLIC "-//W3C//DTD SVG 1.1//EN" "http://www.w3.org/Graphics/SVG/1.1/DTD/svg11.dtd">
<svg width="100%" height="100%" viewBox="0 0 1080 1080" version="1.1" xmlns="http://www.w3.org/2000/svg" xmlns:xlink="http://www.w3.org/1999/xlink" xml:space="preserve" xmlns:serif="http://www.serif.com/" style="fill-rule:evenodd;clip-rule:evenodd;stroke-linejoin:round;stroke-miterlimit:2;">
    <g transform="matrix(1.5207,0,0,0.819677,-281.181,-222.86)">
        <rect x="540" y="632.649" width="195.349" height="202.326" style="fill:rgb(235,235,235);"/>
    </g>
    <g transform="matrix(0.760341,0,0,2.37905,-19.1158,-1209.4)">
        <rect x="540" y="632.649" width="195.349" height="202.326" style="fill:rgb(153,153,164);"/>
    </g>
    <g transform="matrix(0.78812,0,0,0.833236,242.932,932.592)">
        <path d="M188.466,0C135.46,0 90.798,-18.16 54.479,-54.479C18.16,-91.779 0,-136.442 0,-188.466L0,-753.865C0,-805.89 18.16,-850.061 54.479,-886.38C91.779,-923.681 136.442,-942.331 188.466,-942.331L753.865,-942.331L753.865,-753.865L188.466,-753.865L188.466,-188.466L565.399,-188.466L565.399,-376.933L376.933,-376.933L376.933,-565.399L565.399,-565.399C617.423,-565.399 661.595,-546.748 697.914,-509.448C735.215,-472.147 753.865,-427.975 753.865,-376.933L753.865,-188.466C753.865,-135.46 735.215,-90.798 697.914,-54.479C660.613,-18.16 616.442,0 565.399,0L188.466,0Z" style="fill-rule:nonzero;"/>
    </g>
</svg>
